<svg width="16" height="20" viewBox="0 0 16 20" fill="none" xmlns="http://www.w3.org/2000/svg">
<path d="M4.66797 3.33329V13.3333C4.66797 13.7753 4.84356 14.1992 5.15612 14.5118C5.46869 14.8244 5.89261 15 6.33464 15H13.0013C13.4433 15 13.8673 14.8244 14.1798 14.5118C14.4924 14.1992 14.668 13.7753 14.668 13.3333V6.03496C14.6679 5.81293 14.6235 5.59314 14.5374 5.3885C14.4513 5.18386 14.3251 4.99849 14.1663 4.84329L11.4038 2.14163C11.0924 1.83717 10.6743 1.66668 10.2388 1.66663H6.33464C5.89261 1.66663 5.46869 1.84222 5.15612 2.15478C4.84356 2.46734 4.66797 2.89127 4.66797 3.33329V3.33329Z" stroke="#3168DA" stroke-width="2" stroke-linecap="round" stroke-linejoin="round"/>
<path d="M11.334 14.9999V16.6666C11.334 17.1086 11.1584 17.5325 10.8458 17.8451C10.5333 18.1577 10.1093 18.3333 9.66732 18.3333H3.00065C2.55862 18.3333 2.1347 18.1577 1.82214 17.8451C1.50958 17.5325 1.33398 17.1086 1.33398 16.6666V7.49992C1.33398 7.05789 1.50958 6.63397 1.82214 6.32141C2.1347 6.00885 2.55862 5.83325 3.00065 5.83325H4.66732" stroke="#3168DA" stroke-width="2" stroke-linecap="round" stroke-linejoin="round"/>
</svg>
