<svg width="22" height="22" viewBox="0 0 22 22" fill="none" xmlns="http://www.w3.org/2000/svg">
<path d="M16.8491 4.98411L16.8397 4.99357C16.7513 4.91039 16.6346 4.86398 16.5132 4.86377C16.3915 4.86377 16.2818 4.91041 16.1971 4.98499L16.1968 4.98411L16.177 5.00171C16.1757 5.00303 16.1742 5.00391 16.1731 5.00523L15.266 5.80427C15.259 5.81065 15.2513 5.81637 15.2445 5.82319L15.2427 5.82451L15.2429 5.82473C15.193 5.87591 15.1551 5.93763 15.1322 6.00536C15.1093 6.07309 15.1018 6.1451 15.1103 6.2161C15.1189 6.28709 15.1432 6.35527 15.1816 6.41562C15.22 6.47596 15.2714 6.52694 15.332 6.56481C16.4019 7.65887 17.0632 9.15421 17.0632 10.8014C17.0632 14.1445 14.3436 16.8643 11 16.8643C7.65622 16.8643 4.93658 14.1447 4.93658 10.8014C4.93658 9.13793 5.61022 7.62895 6.69878 6.53203L6.68822 6.52147C6.7903 6.43347 6.85652 6.30455 6.85652 6.15913C6.85652 6.02911 6.80438 5.91141 6.72034 5.82473L6.72056 5.82451L6.7188 5.82319C6.71198 5.81637 6.70428 5.81065 6.69724 5.80427L5.79018 5.00523C5.78886 5.00391 5.78732 5.00303 5.78622 5.00171L5.76642 4.98411L5.7662 4.98499C5.67921 4.90725 5.56673 4.86411 5.45006 4.86377C5.27208 4.86377 5.1183 4.96167 5.03536 5.10577C3.62076 6.58681 2.75 8.59189 2.75 10.8014C2.75 15.3575 6.44336 19.0509 11 19.0509C15.5566 19.0509 19.25 15.3575 19.25 10.8014C19.25 8.53161 18.3328 6.47571 16.8491 4.98411Z" fill="#EB4040"/>
<path d="M10.3839 13.8013H11.6144C11.7418 13.8013 11.864 13.7506 11.9541 13.6605C12.0442 13.5704 12.0948 13.4482 12.0948 13.3208V3.43068H12.0946L12.0948 3.42958C12.0948 3.30215 12.0442 3.17993 11.9541 3.08983C11.864 2.99972 11.7418 2.9491 11.6144 2.9491H10.3841C10.2567 2.94939 10.1347 3.00022 10.0448 3.09043C9.95484 3.18065 9.9044 3.30286 9.90452 3.43024L9.9043 3.43068V13.3208C9.9043 13.5861 10.119 13.8008 10.3839 13.8013Z" fill="#EB4040"/>
</svg>
