<svg width="275" height="53" viewBox="0 0 275 53" fill="none" xmlns="http://www.w3.org/2000/svg">
<path d="M0.618652 26.2374V25.9395C0.618652 19.0872 3.33382 12.5156 8.16685 7.67026C12.9999 2.82496 19.5549 0.102905 26.3898 0.102905H52.7549V2.47175C52.7549 7.22398 51.173 11.9239 47.9667 15.4235C46.2621 17.2991 44.1848 18.7963 41.8683 19.8187C39.5518 20.841 37.0476 21.3659 34.5166 21.3596H34.5118L18.8367 21.3567C18.837 20.576 18.9906 19.803 19.2889 19.0818C19.5872 18.3606 20.0242 17.7054 20.575 17.1535C21.1259 16.6016 21.7798 16.164 22.4994 15.8655C23.2189 15.5669 23.9901 15.4134 24.7688 15.4137L34.5147 15.4156H34.5176C36.4682 15.4469 38.3961 14.9936 40.1294 14.0961C41.6925 13.2783 43.0655 12.1383 44.1581 10.751C45.2508 9.36371 46.0384 7.76044 46.4695 6.04642H26.3908C22.1867 6.04679 18.0913 7.38515 14.6945 9.86866C11.2977 12.3522 8.77507 15.8526 7.48994 19.8657C7.40161 20.1419 7.31935 20.471 7.24289 20.8318C6.92361 22.3573 6.09144 23.7266 4.88561 24.7106C3.67978 25.6946 2.17344 26.2336 0.618652 26.2374Z" fill="white"/>
<path d="M52.7554 26.2364V26.5343C52.7554 33.3865 50.0402 39.9582 45.2072 44.8035C40.3742 49.6488 33.8192 52.3709 26.9843 52.3709H0.619141V50.002C0.619141 45.2498 2.20105 40.5499 5.40731 37.0503C7.11191 35.1746 9.18926 33.6774 11.5057 32.6551C13.8222 31.6327 16.3265 31.1078 18.8575 31.1141H18.8622L34.5374 31.1171C34.5371 31.8978 34.3835 32.6708 34.0852 33.392C33.787 34.1132 33.3499 34.7685 32.7991 35.3203C32.2482 35.8722 31.5943 36.3099 30.8747 36.6084C30.1551 36.9069 29.384 37.0604 28.6052 37.0601L18.8593 37.0582H18.8564C16.9058 37.0267 14.9778 37.4798 13.2443 38.3772C11.6813 39.195 10.3083 40.335 9.21568 41.7223C8.12303 43.1096 7.33534 44.7128 6.90432 46.4268H26.9827C31.1868 46.4265 35.2824 45.0882 38.6792 42.6046C42.076 40.1211 44.5987 36.6207 45.8838 32.6076C45.9722 32.3313 46.0544 32.0023 46.1309 31.6415C46.4503 30.116 47.2825 28.7468 48.4884 27.7629C49.6943 26.7789 51.2006 26.2401 52.7554 26.2364Z" fill="white"/>
<path d="M97.8814 24.0833C100.723 24.0833 102.882 24.6159 104.361 25.6811C105.839 26.7232 106.578 28.3095 106.578 30.44C106.578 31.621 106.393 32.6862 106.024 33.6357C105.654 34.5851 105.065 35.3841 104.257 36.0325C103.448 36.6809 102.409 37.1788 101.138 37.5261C99.891 37.8735 98.3896 38.0472 96.6341 38.0472H75.0483L79.6565 32.0726H97.1884C98.0431 32.0726 98.6667 31.9452 99.0594 31.6905C99.4521 31.4126 99.6484 30.9726 99.6484 30.3705C99.6484 29.7684 99.4521 29.34 99.0594 29.0853C98.6667 28.8305 98.0431 28.7032 97.1884 28.7032H84.5765C83.0751 28.7032 81.7816 28.5411 80.696 28.2169C79.6103 27.8926 78.7095 27.4411 77.9934 26.8621C77.2774 26.2832 76.7461 25.5885 76.3996 24.778C76.0531 23.9443 75.8799 23.0296 75.8799 22.0338C75.8799 20.9454 76.0647 19.9612 76.4343 19.0813C76.8269 18.1781 77.416 17.4139 78.2013 16.7887C79.0098 16.1634 80.0377 15.6771 81.285 15.3298C82.5554 14.9824 84.0684 14.8087 85.8239 14.8087H105.954L101.346 20.8528H85.2695C84.438 20.8528 83.8143 20.9686 83.3985 21.2002C83.0058 21.4317 82.8095 21.8486 82.8095 22.4507C82.8095 23.0528 83.0058 23.4812 83.3985 23.7359C83.8143 23.9675 84.438 24.0833 85.2695 24.0833H97.8814Z" fill="white"/>
<path d="M142.955 14.8087L129.199 30.3705V38.0472H121.993V30.3358L107.856 14.8087H117.073L122.616 21.2696C122.801 21.4781 123.044 21.7559 123.344 22.1033C123.644 22.4275 123.956 22.7749 124.279 23.1454C124.603 23.5159 124.903 23.8633 125.18 24.1875C125.457 24.5117 125.654 24.7548 125.769 24.9169C126 24.5927 126.335 24.1527 126.774 23.597C127.213 23.0412 127.848 22.2538 128.68 21.2349L133.946 14.8087H142.955Z" fill="white"/>
<path d="M164.843 24.0833C167.684 24.0833 169.844 24.6159 171.322 25.6811C172.8 26.7232 173.539 28.3095 173.539 30.44C173.539 31.621 173.355 32.6862 172.985 33.6357C172.615 34.5851 172.026 35.3841 171.218 36.0325C170.409 36.6809 169.37 37.1788 168.1 37.5261C166.852 37.8735 165.351 38.0472 163.595 38.0472H142.01L146.618 32.0726H164.15C165.004 32.0726 165.628 31.9452 166.021 31.6905C166.413 31.4126 166.61 30.9726 166.61 30.3705C166.61 29.7684 166.413 29.34 166.021 29.0853C165.628 28.8305 165.004 28.7032 164.15 28.7032H151.538C150.036 28.7032 148.743 28.5411 147.657 28.2169C146.572 27.8926 145.671 27.4411 144.955 26.8621C144.239 26.2832 143.707 25.5885 143.361 24.778C143.014 23.9443 142.841 23.0296 142.841 22.0338C142.841 20.9454 143.026 19.9612 143.396 19.0813C143.788 18.1781 144.377 17.4139 145.163 16.7887C145.971 16.1634 146.999 15.6771 148.246 15.3298C149.517 14.9824 151.03 14.8087 152.785 14.8087H172.916L168.308 20.8528H152.231C151.399 20.8528 150.776 20.9686 150.36 21.2002C149.967 21.4317 149.771 21.8486 149.771 22.4507C149.771 23.0528 149.967 23.4812 150.36 23.7359C150.776 23.9675 151.399 24.0833 152.231 24.0833H164.843Z" fill="white"/>
<path d="M207.317 23.5275C207.317 24.8243 207.063 26.0053 206.555 27.0706C206.047 28.1126 205.296 29.0042 204.303 29.7452C203.333 30.4863 202.143 31.0652 200.734 31.482C199.325 31.8989 197.72 32.1073 195.918 32.1073H183.791V38.0472H176.654V26.1674H196.611C197.72 26.1674 198.575 25.9243 199.175 25.438C199.799 24.9517 200.111 24.3033 200.111 23.4927C200.111 22.6822 199.799 22.0454 199.175 21.5823C198.575 21.096 197.72 20.8528 196.611 20.8528H176.654L181.401 14.8087H195.953C197.755 14.8087 199.36 15.0287 200.769 15.4687C202.178 15.8855 203.368 16.4761 204.338 17.2403C205.308 18.0044 206.047 18.9192 206.555 19.9844C207.063 21.0496 207.317 22.2307 207.317 23.5275Z" fill="white"/>
<path d="M215.289 38.0472L219.62 32.0726H225.441C226.134 32.0726 226.85 32.0726 227.589 32.0726C228.351 32.0726 229.01 32.0957 229.564 32.142C229.241 31.7252 228.86 31.2042 228.421 30.5789C228.005 29.9305 227.601 29.3284 227.208 28.7726L223.05 22.6243L212.171 38.0472H203.682L218.546 17.0318C219.031 16.3603 219.643 15.7582 220.382 15.2256C221.122 14.6929 222.057 14.4266 223.189 14.4266C224.275 14.4266 225.175 14.6814 225.891 15.1908C226.631 15.6771 227.254 16.2908 227.762 17.0318L242.245 38.0472H215.289Z" fill="white"/>
<path d="M274.287 26.2022C274.287 27.8927 273.929 29.4674 273.212 30.9263C272.52 32.362 271.549 33.6125 270.302 34.6778C269.078 35.7198 267.611 36.5419 265.902 37.144C264.192 37.7461 262.333 38.0472 260.323 38.0472H244.801V23.5622H252.008V32.0726H260.323C261.317 32.0726 262.229 31.9452 263.061 31.6905C263.915 31.4126 264.643 31.0305 265.243 30.5442C265.844 30.0579 266.318 29.4789 266.664 28.8074C267.01 28.1126 267.184 27.3485 267.184 26.5148C267.184 25.7043 267.01 24.9517 266.664 24.2569C266.318 23.5622 265.832 22.9717 265.209 22.4854C264.585 21.9759 263.858 21.5823 263.026 21.3044C262.194 21.0033 261.294 20.8528 260.323 20.8528H244.801L249.375 14.8087H260.323C262.356 14.8087 264.227 15.0866 265.936 15.6424C267.646 16.1982 269.112 16.9855 270.337 18.0045C271.584 19.0002 272.554 20.2044 273.247 21.617C273.94 23.0064 274.287 24.5348 274.287 26.2022Z" fill="white"/>
</svg>
