<svg width="122" height="152" viewBox="0 0 122 152" fill="none" xmlns="http://www.w3.org/2000/svg">
<path d="M119.226 19.8742L63.4773 0.875781C62.8047 0.646094 61.9023 0.53125 61 0.53125C60.0977 0.53125 59.1953 0.646094 58.5227 0.875781L2.77422 19.8742C1.4125 20.3336 0.296875 21.9086 0.296875 23.3523V102.496C0.296875 103.94 1.23203 105.843 2.36406 106.745L58.9164 150.812C59.4906 151.255 60.2289 151.485 60.9836 151.485C61.7383 151.485 62.493 151.255 63.0508 150.812L119.603 106.745C120.735 105.859 121.67 103.956 121.67 102.496V23.3523C121.703 21.9086 120.588 20.35 119.226 19.8742ZM109.891 99.3461L61 137.441L12.1094 99.3461V29.193L61 12.5242L109.891 29.193V99.3461ZM43.1008 78.7562L30.3859 91.4711C30.1417 91.7178 30.0047 92.0509 30.0047 92.398C30.0047 92.7452 30.1417 93.0783 30.3859 93.325L35.9641 98.9031C36.4727 99.4117 37.3094 99.4117 37.818 98.9031L50.5328 86.1883C59.6711 91.9469 71.8773 90.8477 79.8344 82.8906C89.0711 73.6539 89.0711 58.6914 79.8344 49.4547C70.5977 40.218 55.6352 40.218 46.3984 49.4547C38.4414 57.4117 37.3422 69.6344 43.1008 78.7562ZM53.8305 56.8867C58.9656 51.7516 67.2836 51.7516 72.4023 56.8867C77.5375 62.0219 77.5375 70.3398 72.4023 75.4586C67.2672 80.5938 58.9492 80.5938 53.8305 75.4586C48.7117 70.3234 48.6953 62.0219 53.8305 56.8867Z" fill="url(#paint0_linear_308_2546)"/>
<defs>
<linearGradient id="paint0_linear_308_2546" x1="34.2816" y1="-45.5097" x2="115.492" y2="193.428" gradientUnits="userSpaceOnUse">
<stop stop-color="#00ADDB"/>
<stop offset="1" stop-color="#4747FF"/>
</linearGradient>
</defs>
</svg>
